<?xml version="1.0" encoding="utf-8"?>
<!-- Generator: Adobe Illustrator 16.0.0, SVG Export Plug-In . SVG Version: 6.00 Build 0)  -->
<!DOCTYPE svg PUBLIC "-//W3C//DTD SVG 1.1//EN" "http://www.w3.org/Graphics/SVG/1.1/DTD/svg11.dtd">
<svg version="1.1" id="Capa_1" xmlns="http://www.w3.org/2000/svg" xmlns:xlink="http://www.w3.org/1999/xlink" x="0px" y="0px"
	 width="640px" height="960px" viewBox="0 0 640 960" enable-background="new 0 0 640 960" xml:space="preserve">
<path fill="#16A4E2" d="M580.557,160H59.419c-12.483,0-21.849,10.563-20.747,23.045l47.6,533.409
	c1.103,12.473,11.891,25.527,23.99,28.897l187.644,52.123c12.084,3.35,31.834,3.371,43.936,0.044l187.876-52.05
	c12.103-3.361,22.891-16.297,23.992-28.791l47.62-533.632C602.43,170.563,593.105,160,580.557,160z M490.178,352.546
	c-0.008,0.081-0.072,0.145-0.152,0.159c-0.082,0.014-0.16-0.028-0.195-0.104l-147.015,60.246c-2.094,0.858-3.287,3.078-2.853,5.298
	c0.438,2.221,2.385,3.822,4.648,3.822h114.354c6.083,0,11.878,2.583,15.946,7.107c4.067,4.523,6.022,10.562,5.376,16.609
	L462.42,613.296c-0.877,8.223-6.402,15.209-14.205,17.954l-121.377,42.708c-4.571,1.609-9.555,1.622-14.137,0.034l-120.81-41.849
	c-7.85-2.72-13.422-9.726-14.304-17.986l-8.1-75.908c-0.426-3.984,0.861-7.963,3.54-10.942c2.681-2.98,6.498-4.683,10.507-4.683
	h33.618c7.224,0,13.282,5.448,14.047,12.63l4.969,46.659l83.649,29.076l84.032-29.342l10.277-96.769H176.534
	c-7.202,0-13.252-5.418-14.042-12.576l-4.523-41.014c-0.69-6.256,2.839-12.213,8.655-14.61l152.063-62.693
	c1.726-0.711,2.706-2.54,2.345-4.37c-0.363-1.829-1.967-3.146-3.831-3.146H157.1c-4.819,0-8.862-3.64-9.365-8.431l-4.631-44.083
	c-0.279-2.652,0.582-5.3,2.367-7.284c1.785-1.982,4.329-3.115,6.997-3.115h334.996c2.683,0,5.237,1.145,7.024,3.145
	c1.786,2.001,2.635,4.669,2.331,7.334L490.178,352.546z"/>
</svg>
